<svg version="1.1" id="Layer_1" xmlns="http://www.w3.org/2000/svg" xmlns:xlink="http://www.w3.org/1999/xlink" x="0px" y="0px"
	 width="100%" viewBox="0 0 560 560" enable-background="new 0 0 560 560" xml:space="preserve">
<path fill="#000000" opacity="1.000000" stroke="none" 
	d="
M385.095276,421.133301 
	C356.498138,442.452972 324.723694,454.489349 289.422882,455.282043 
	C226.466583,456.695770 177.121628,430.765961 141.281189,379.056580 
	C139.766418,376.871124 138.358368,374.574799 137.204163,372.183594 
	C134.248367,366.060059 130.502701,360.715576 124.299583,357.433136 
	C123.332657,356.921478 122.353287,356.093781 122.255295,354.143250 
	C131.255463,351.483276 123.339577,345.463562 124.518356,340.923462 
	C124.617760,340.540588 123.906807,339.733154 124.039665,339.604126 
	C128.349884,335.418060 123.464813,330.392273 125.316368,326.010437 
	C126.517220,323.168518 123.458565,322.965027 122.316277,321.272125 
	C124.080574,318.096588 131.897491,317.118195 126.124115,311.104889 
	C129.076965,308.252441 130.443604,305.003326 129.911636,301.153503 
	C129.569977,298.681152 131.304382,297.477051 132.854095,296.324921 
	C138.918655,291.816254 141.572739,285.717316 141.758652,278.314789 
	C143.297043,217.056396 184.236191,162.803101 242.737122,144.445923 
	C244.313538,143.951233 245.838684,143.252747 247.751190,143.956528 
	C247.576141,146.450455 245.551361,146.657394 243.982590,147.175354 
	C198.840866,162.079788 168.759888,192.380798 152.329437,236.685043 
	C148.477570,247.071487 146.501999,257.842224 145.497818,268.824951 
	C145.392914,269.972198 145.193253,271.161316 145.937256,272.181122 
	C151.986954,273.593628 155.758316,270.983063 159.451782,266.196564 
	C162.737915,261.937988 167.614853,258.903870 171.804657,255.346939 
	C173.712799,253.727020 176.182907,252.282578 176.724319,249.830872 
	C178.484024,241.862503 184.190887,236.329407 188.373199,229.848770 
	C189.755493,227.706879 190.932144,226.161819 193.936508,227.423721 
	C197.837936,229.062378 202.231720,227.232925 204.249405,223.411469 
	C205.256287,221.504471 205.914062,219.416351 206.818619,217.451050 
	C207.519440,215.928482 208.439453,213.770935 209.956696,213.805344 
	C215.683105,213.935181 215.500000,209.592880 216.218018,206.050568 
	C216.749985,203.426147 217.774811,201.537674 220.229126,200.194611 
	C223.994217,198.134262 225.950867,194.697449 226.277588,190.428467 
	C226.541290,186.982651 227.418732,183.882935 230.312683,181.672165 
	C230.570374,181.475311 230.866608,181.194336 230.934540,180.903320 
	C232.746262,173.143433 237.354233,167.817261 244.172958,163.653290 
	C246.972290,161.943848 249.051773,158.930222 252.401367,157.514618 
	C256.585541,155.746246 259.538910,152.852295 259.873871,147.811264 
	C260.327850,140.979584 266.086639,137.951431 270.433868,133.972580 
	C271.235016,133.239319 272.419342,133.292236 273.142120,134.173080 
	C276.757751,138.579498 281.965851,142.134750 281.307831,148.900909 
	C280.917908,152.910126 282.227570,156.438843 284.214752,159.808533 
	C284.908051,160.984161 285.733612,162.528915 287.050903,162.354889 
	C291.725800,161.737198 293.324493,165.245834 295.522919,168.094727 
	C297.569916,170.747437 299.463104,173.097412 303.724976,172.353500 
	C307.026642,171.777176 308.342865,175.372894 309.335602,177.854019 
	C311.781281,183.966446 315.376923,188.447174 322.222137,189.768829 
	C324.930298,190.291733 325.023438,193.257675 326.191498,195.175766 
	C328.070557,198.261353 329.253784,202.087585 334.364960,200.143997 
	C336.118042,199.477371 337.227722,201.452972 338.308472,202.695114 
	C342.487762,207.498535 343.131866,213.527557 344.100616,219.443954 
	C345.347412,227.058746 349.304993,230.352631 356.996124,230.077484 
	C358.349579,230.029083 359.577484,230.538925 359.872711,231.615555 
	C361.301758,236.827515 366.556152,238.749146 369.247070,242.839813 
	C369.898315,243.829834 370.772552,245.007767 372.018829,244.578323 
	C376.472198,243.043747 377.898407,246.338715 379.657288,249.127304 
	C381.168121,251.522659 382.593781,253.971603 384.074219,256.386353 
	C384.861816,257.670990 385.755859,259.522034 387.207062,259.356812 
	C392.621704,258.740326 397.497986,262.077881 400.821320,264.358521 
	C405.864624,267.819489 411.062469,270.813873 416.353455,273.812439 
	C417.895203,274.686157 418.669403,276.914154 420.241638,278.313507 
	C419.465668,243.538193 407.204376,213.156250 383.998352,187.489914 
	C360.840363,161.876740 331.695374,146.965057 296.481384,143.079483 
	C298.900879,139.918335 301.141968,140.761658 303.106415,141.044281 
	C340.977722,146.492493 371.244476,165.041611 394.403137,195.117233 
	C413.147308,219.459824 422.603088,247.364441 423.840637,278.036133 
	C423.967621,281.182953 423.164215,284.385742 423.447174,287.503174 
	C423.805145,291.446838 425.078217,294.714081 430.227509,295.033569 
	C433.711426,295.249725 436.119843,297.641235 436.220642,301.637177 
	C436.309357,305.152405 436.571838,308.666504 440.284058,311.081299 
	C436.104218,315.865021 439.454651,318.237640 443.690887,320.517853 
	C440.805298,322.868866 441.842560,326.036560 441.236298,328.345245 
	C439.712616,334.147430 441.080139,339.369507 441.386719,344.826965 
	C441.395752,344.987457 441.396210,345.221344 441.299988,345.304352 
	C436.313416,349.605286 439.278198,352.241730 443.675751,354.531250 
	C442.963898,355.462921 442.612549,356.355377 441.968140,356.700165 
	C434.473602,360.710358 431.025665,367.932892 426.978973,374.841461 
	C416.315002,393.046967 402.095032,408.132355 385.095276,421.133301 
M297.760254,385.133270 
	C299.570160,389.446594 296.874146,394.541962 300.099243,398.609680 
	C306.547943,397.483582 310.767426,391.488708 308.168488,387.612885 
	C310.788452,384.147949 314.444397,383.328400 318.502869,383.370331 
	C319.153900,383.377045 319.782288,382.407410 320.475861,381.977356 
	C325.454010,378.890106 324.143616,373.876099 324.752808,369.259521 
	C325.262238,365.398987 323.752228,364.593597 320.582458,364.294739 
	C318.326447,364.082001 315.740753,365.026367 313.351532,362.851349 
	C318.367920,359.535706 327.419830,365.870850 327.961853,355.625061 
	C332.549164,355.625061 336.542450,355.513306 340.526611,355.656006 
	C344.626801,355.802887 346.730133,353.501007 346.326080,349.918884 
	C346.015808,347.168213 347.211823,345.678009 348.463776,343.739868 
	C351.131744,339.609680 353.579987,335.322388 352.065552,329.828308 
	C348.466949,330.050934 346.613251,332.288483 344.568665,334.169006 
	C339.158203,339.145294 333.632324,343.958984 326.631531,346.630249 
	C325.051147,347.233276 323.461334,348.414703 321.058807,346.958191 
	C325.091827,343.809448 329.017395,341.122192 332.481537,337.933594 
	C335.938660,334.751465 339.671600,331.587341 341.915375,326.159943 
	C337.485535,326.562653 335.244415,329.723022 331.981232,329.260712 
	C338.581573,313.241669 345.468933,297.551788 349.794189,280.692108 
	C354.996460,291.577515 360.226471,302.294556 364.158844,313.468292 
	C366.976593,321.474762 371.289124,328.389923 377.431061,333.584625 
	C381.168274,336.745514 383.447937,339.703796 384.203705,344.288757 
	C384.484833,345.994354 385.106537,349.047760 386.832458,348.341522 
	C390.583038,346.806732 389.624420,349.841217 390.376465,351.160828 
	C391.161530,352.538391 390.794647,354.506439 392.494293,355.451660 
	C396.546997,351.793274 396.065247,347.707306 391.428619,344.108215 
	C396.691772,337.276764 399.892700,329.605286 401.248718,320.964539 
	C406.725708,331.126007 408.332520,342.249420 411.072052,353.139465 
	C414.846527,352.982513 420.097290,350.942139 419.313843,348.411774 
	C417.705841,343.218140 422.552734,336.739502 416.265228,332.850159 
	C415.994812,330.657013 419.394745,331.492828 419.064148,329.039001 
	C418.574982,328.585785 418.045715,327.921173 417.367340,327.492737 
	C405.113037,319.754089 396.312500,308.745819 388.224457,297.010437 
	C385.113190,292.496124 382.567261,287.463409 378.405212,283.813049 
	C369.211884,275.750031 363.511078,265.649536 360.259827,254.035721 
	C359.868622,252.638489 358.972534,251.778412 358.156616,250.744980 
	C352.811646,243.975037 347.451294,237.215912 342.215302,230.362106 
	C340.698547,228.376648 340.004974,225.998337 339.527954,223.463364 
	C338.891113,220.078979 339.042084,216.327225 336.376282,213.171387 
	C330.146667,227.383743 329.466583,243.021500 322.349304,257.062195 
	C319.523529,254.104507 322.465851,251.568954 321.120117,249.224045 
	C311.478180,259.098633 304.789246,270.588379 296.761871,282.133850 
	C300.526123,282.053467 301.353912,278.338593 304.036377,278.835510 
	C306.319183,280.965027 303.114960,284.446686 306.095978,286.084137 
	C308.126892,286.436310 309.187195,283.704529 311.707916,285.004700 
	C310.250854,291.467987 312.484863,296.618469 316.804565,302.004761 
	C320.649445,306.798981 322.204010,313.430023 325.143005,320.097992 
	C321.130676,318.786133 319.051636,316.526245 317.698059,314.071747 
	C309.753998,299.666595 296.663483,290.151764 285.035400,279.251709 
	C283.313690,277.637817 281.728027,275.696045 278.570282,277.409851 
	C276.748749,278.398438 274.673492,276.112976 274.832184,274.454651 
	C275.290375,269.665894 271.665161,269.104614 268.119781,266.732086 
	C269.513184,272.901764 274.012909,276.778015 274.021057,282.354553 
	C274.025177,285.167511 274.505463,288.000580 275.771698,290.602875 
	C277.111145,293.355530 276.783295,295.819580 275.409973,298.642456 
	C272.396484,304.836609 272.271362,311.058838 276.311493,317.115906 
	C279.865570,322.444305 284.176361,326.994476 289.044250,331.102905 
	C290.177704,332.059540 292.169647,332.517303 291.948120,334.581268 
	C291.258881,335.233429 290.609802,335.049225 290.015961,334.740875 
	C281.654816,330.399536 274.175659,324.823975 268.033691,317.711639 
	C264.552917,313.680969 262.926605,308.774475 264.658997,303.268829 
	C265.557251,300.414093 266.466339,297.539703 267.030334,294.608734 
	C267.704254,291.106445 268.157593,287.278351 264.875000,284.874207 
	C263.597260,283.938416 262.182556,283.731842 262.706085,281.798279 
	C263.412872,279.187927 265.399963,281.820770 266.707703,281.086151 
	C265.240112,278.271332 263.891876,275.685455 262.514587,273.043854 
	C258.093292,274.845337 258.502533,278.462585 258.191589,281.942139 
	C257.888672,285.331329 258.319763,289.150787 254.872177,291.725220 
	C252.720581,288.776520 255.617996,285.640503 253.698425,282.345581 
	C247.033432,289.160706 240.241364,295.626801 236.546936,303.851532 
	C235.083572,307.109406 231.194901,313.459381 238.877853,317.355865 
	C234.004913,319.355865 230.188156,317.738159 225.476166,316.625092 
	C231.840958,323.784760 232.733521,331.329865 231.804688,339.468964 
	C223.831070,329.454895 223.289612,313.922729 208.810196,308.639771 
	C206.730484,312.287048 208.075455,318.726440 200.958542,316.837433 
	C200.486282,316.712067 199.390045,318.020721 198.943344,318.854828 
	C193.292404,329.406616 184.422897,336.509552 174.129822,342.065277 
	C170.908447,343.804077 170.722214,345.661621 173.087570,347.849823 
	C174.839035,348.087280 174.283325,345.580109 176.064468,346.143494 
	C179.168686,350.565735 178.215195,356.428253 180.547180,361.401855 
	C186.239136,356.830017 182.124420,348.694763 187.907196,344.497345 
	C191.479172,350.189514 193.647675,356.278931 192.172546,362.547668 
	C190.955856,367.718170 193.430252,369.830688 196.867798,372.159943 
	C198.206100,373.066772 199.416275,373.834381 200.934708,372.809143 
	C202.232758,371.932678 202.754944,370.678802 203.044525,369.073883 
	C204.843674,359.102936 203.117966,348.383942 209.837494,339.417328 
	C211.731918,336.889343 210.770096,332.874115 212.694626,329.647675 
	C215.563217,333.115417 213.246597,337.528870 216.177872,340.727478 
	C218.742218,343.525696 219.715591,347.235107 220.711044,351.121643 
	C221.822433,355.460907 223.467636,359.499878 222.864731,364.101410 
	C222.346878,368.053802 223.779251,370.621246 228.170074,370.624115 
	C232.205383,370.626740 234.068542,368.246765 233.608109,364.547791 
	C233.076492,360.276978 235.343094,357.081116 236.787445,352.573242 
	C239.661880,357.502106 241.142563,361.762817 241.058121,366.726074 
	C241.000839,370.094513 240.928574,373.720490 246.356384,373.899872 
	C251.463318,374.068665 252.216583,371.166138 252.467331,367.426300 
	C252.681427,364.233337 253.874237,361.521118 255.884476,358.374664 
	C257.818909,362.480042 259.666504,365.703339 259.950623,369.918823 
	C260.159760,373.022552 259.048462,377.078430 261.347137,379.219849 
	C263.967377,381.660858 267.138062,384.236969 271.508575,383.754028 
	C274.633820,383.408722 277.826569,383.610168 280.987061,383.673828 
	C282.702942,383.708405 284.470398,383.903687 284.026215,386.505066 
	C279.086426,388.033508 275.603729,394.429840 268.040863,389.398651 
	C273.872162,397.466553 278.895508,399.355042 286.285248,397.583679 
	C288.373230,397.083130 289.150391,395.753662 288.904938,393.986359 
	C287.931152,386.974548 291.860016,381.297119 293.326996,374.253540 
	C296.429352,377.689758 296.605652,381.226440 297.760254,385.133270 
M270.224335,184.272400 
	C269.571167,187.696915 268.811005,191.105286 268.291687,194.549973 
	C267.629974,198.938889 266.534760,203.472107 271.959259,206.091492 
	C273.126068,206.654922 272.825623,208.467987 272.761047,209.815628 
	C272.216064,221.185089 277.932495,229.571945 289.020477,233.638824 
	C288.908569,231.815521 287.511078,230.755203 286.634857,229.417175 
	C281.081543,220.937225 274.622589,212.801132 274.071930,202.117661 
	C273.788452,196.618179 270.312958,189.427353 280.179108,187.810120 
	C280.601440,188.444046 281.020813,189.382660 281.704681,190.050430 
	C286.647797,194.877258 285.446228,204.247253 293.961823,206.518097 
	C295.776703,203.755005 292.534119,200.418411 294.727448,197.445862 
	C299.223358,199.778671 298.917267,205.384827 302.415192,208.052017 
	C304.284546,207.215744 303.874512,204.717255 305.965179,204.349960 
	C308.588165,205.500336 308.658081,209.084747 311.490234,210.630768 
	C311.905945,207.534180 312.353943,204.761749 312.631927,201.972366 
	C312.928467,198.996689 313.586731,195.920853 313.123138,193.044052 
	C312.662140,190.183319 308.621857,189.749084 307.555573,186.928818 
	C307.438690,186.619659 307.259247,186.332565 307.094727,186.043243 
	C306.119354,184.328003 305.930878,181.161438 302.794312,182.829590 
	C299.972504,184.330338 301.243408,186.595963 302.273743,188.833832 
	C303.830566,192.215271 305.401642,195.683685 304.562134,199.704681 
	C301.822479,199.706024 300.950562,197.722351 300.012482,196.083908 
	C297.595459,191.862442 294.959869,187.874146 290.989502,184.904053 
	C289.484406,183.778183 288.359375,182.105499 288.116364,180.325073 
	C287.299469,174.340012 285.093842,169.184708 280.953888,164.646942 
	C277.330688,160.675598 276.901337,155.146774 275.264801,149.982254 
	C272.271301,155.155060 269.341248,160.011856 269.238281,166.034912 
	C269.138763,171.852875 269.307770,177.632751 270.224335,184.272400 
M398.128204,288.318970 
	C396.379944,288.214355 395.303925,291.215698 392.966522,289.078033 
	C390.153931,286.505829 393.774506,285.151459 393.908447,283.110291 
	C387.130524,277.054443 380.856598,270.605560 372.836578,265.477875 
	C372.715698,270.894745 373.731323,273.640869 378.998993,279.205475 
	C385.182922,285.737976 390.714966,292.642822 395.733215,300.162994 
	C400.109924,306.721680 405.251343,312.977875 411.344086,318.219238 
	C413.439606,320.021942 415.518158,322.000275 418.574127,321.894897 
	C420.727539,318.470276 421.588959,315.444763 418.462128,312.272491 
	C411.221344,304.926514 405.024872,296.689087 398.128204,288.318970 
M355.342346,336.106049 
	C355.655823,341.510406 361.058472,344.855499 360.602417,350.939362 
	C360.127960,357.268372 364.185394,363.282532 362.953705,370.031342 
	C362.389954,373.120514 366.256653,375.018219 368.971954,373.103577 
	C371.795380,371.112732 374.599182,368.949463 374.602295,364.853973 
	C374.606384,359.480225 374.015991,354.049774 376.498352,348.908020 
	C377.227509,347.397644 375.601074,346.219055 374.704987,345.042358 
	C370.948029,340.108826 366.489807,335.875885 361.621918,332.075378 
	C360.131256,330.911560 358.750336,328.705505 356.515289,329.844269 
	C354.259155,330.993744 355.419098,333.392487 355.342346,336.106049 
M155.006561,325.589722 
	C152.249512,327.444824 149.471466,329.269714 146.742477,331.165222 
	C144.774368,332.532227 144.004639,333.976044 145.181793,336.621185 
	C146.335037,339.212555 147.052963,342.299133 146.896194,345.108887 
	C146.575546,350.855560 149.940170,353.946259 155.690643,352.681824 
	C155.995026,344.834747 157.269485,337.284912 161.047287,330.344452 
	C162.618301,327.458252 163.659363,324.692108 161.251755,321.782898 
	C158.703781,322.158173 157.300293,323.928101 155.006561,325.589722 
M182.193680,324.561279 
	C176.678482,324.338409 171.377579,323.410248 167.151276,319.366425 
	C164.139572,324.917755 165.819000,331.770203 171.207504,337.131500 
	C175.241150,334.579529 178.578461,331.126556 182.128036,327.943604 
	C182.978409,327.181061 183.778549,326.198120 182.193680,324.561279 
M330.476715,360.165070 
	C331.223419,362.830627 332.795135,365.242798 332.417542,368.262909 
	C332.271820,369.428375 332.940826,370.923431 334.421478,371.402313 
	C339.134705,372.926788 344.665833,368.848297 343.924896,364.023041 
	C343.656433,362.274780 344.769867,360.420380 343.091034,358.272949 
	C339.167999,359.085114 334.745667,356.638763 330.476715,360.165070 
M380.388855,351.957123 
	C380.943909,354.655090 381.561768,357.342133 382.031860,360.054840 
	C382.343048,361.850464 383.644531,362.594055 384.614929,361.325073 
	C386.418396,358.966614 385.937866,355.874298 385.370209,353.206879 
	C384.878693,350.897491 382.748108,350.602875 380.388855,351.957123 
M263.955322,239.690536 
	C264.520538,239.630249 266.205597,240.651825 265.467438,239.426025 
	C263.195221,235.652740 261.345123,231.426956 257.165161,228.211136 
	C257.334045,233.594681 259.832977,236.830124 263.955322,239.690536 
M222.043976,246.216568 
	C221.764008,245.669540 221.484055,245.122528 221.094208,244.360825 
	C219.033752,249.900818 220.899628,254.457565 226.692795,257.803589 
	C226.095093,253.522720 221.754013,251.071014 222.043976,246.216568 
M242.910843,233.910080 
	C242.388870,232.787781 241.866913,231.665482 241.344940,230.543182 
	C242.874771,235.068466 239.107346,240.875000 244.325287,244.897781 
	C245.012344,240.929688 244.435455,237.694305 242.910843,233.910080 
M249.297470,212.827530 
	C248.740311,210.584198 248.183151,208.340881 247.496063,205.574417 
	C244.939423,210.819016 246.647949,214.318375 250.742706,218.170654 
	C250.159668,215.992722 249.828659,214.756226 249.297470,212.827530 
M209.743271,254.425354 
	C208.530304,252.423599 207.868500,253.836700 207.658295,254.928909 
	C207.121475,257.718292 207.013641,260.539551 208.355347,263.312134 
	C207.194061,260.141846 212.170975,258.297913 209.743271,254.425354 
M234.662354,225.966934 
	C233.882568,225.020157 232.797989,223.967560 232.002853,225.557968 
	C230.798538,227.966827 232.663727,229.310989 234.195816,230.801697 
	C235.538788,229.304092 235.846161,227.980545 234.662354,225.966934 
M205.098785,271.601868 
	C204.937302,271.570801 204.758362,271.482422 204.619217,271.524780 
	C204.480469,271.566956 204.265915,271.760193 204.281937,271.853119 
	C204.888794,275.370453 206.877533,277.274597 210.638229,277.095459 
	C208.927597,275.376434 207.216965,273.657410 205.098785,271.601868 
z"/>
<path fill="#000000" opacity="1.000000" stroke="none" 
	d="
M451.152832,290.764526 
	C450.809814,294.218292 450.403442,297.192719 450.204254,300.180908 
	C449.965179,303.767792 448.563934,305.680908 444.580994,305.329529 
	C440.433838,304.963715 441.455505,302.082367 441.703949,299.799927 
	C443.868530,279.914093 443.301910,260.057953 437.871979,240.841583 
	C419.482758,175.762268 376.161713,136.614792 310.441925,123.399345 
	C231.797089,107.584824 147.741531,157.581039 126.740807,244.468201 
	C122.357666,262.602753 122.135391,281.057068 123.954773,299.559570 
	C124.201363,302.067291 124.915520,304.727661 121.097130,305.210846 
	C117.780754,305.630524 115.812782,304.806824 115.354218,300.970428 
	C112.654869,278.387146 113.996429,256.077362 120.233856,234.214737 
	C139.096420,168.100296 194.149277,120.595169 262.353027,112.754776 
	C322.585571,105.830727 372.613678,126.683006 412.616302,171.726318 
	C435.255249,197.217957 446.795319,227.648560 450.468689,261.343262 
	C451.522247,271.007294 451.192200,280.637207 451.152832,290.764526 
z"/>
<path fill="#000000" opacity="1.000000" stroke="none" 
	d="
M344.032135,253.979263 
	C344.633118,256.178345 345.956146,257.486450 347.079193,258.920807 
	C348.343719,260.535889 349.463318,262.403351 349.142548,264.398834 
	C347.909119,272.071747 347.411285,280.125916 342.574768,286.593445 
	C336.774414,294.349854 328.520111,300.155487 324.572693,310.598969 
	C322.603607,306.172699 323.871552,303.270050 325.060577,300.462158 
	C327.146545,295.535980 330.309113,291.229614 333.231049,286.783173 
	C338.643341,278.546997 337.984497,270.279816 335.700684,260.779602 
	C333.381439,251.132187 330.038940,241.184296 331.673828,230.832642 
	C331.827698,229.858383 332.128876,228.864670 333.299133,228.612915 
	C333.479431,228.665985 333.740143,228.699112 333.743622,228.749878 
	C334.389923,238.163864 339.782532,245.636932 344.032135,253.979263 
z"/>
<path fill="#000000" opacity="1.000000" stroke="none" 
	d="
M245.953552,316.044373 
	C243.369324,313.661774 241.482895,311.241486 240.411301,308.196747 
	C242.434158,307.071869 243.117188,308.676147 243.934113,309.474670 
	C250.323715,315.720398 257.465454,320.693573 266.054169,323.515045 
	C270.838501,325.086731 274.046722,328.275757 276.214447,333.069336 
	C281.031311,343.721191 290.355011,348.470734 301.279968,350.632202 
	C303.450012,351.061523 305.759949,350.916931 308.216614,352.934143 
	C304.560944,353.988007 301.655273,353.493469 298.835510,353.017334 
	C286.716431,350.970947 276.446136,345.378571 268.840454,335.725586 
	C262.520447,327.704376 253.847305,322.652527 245.953552,316.044373 
z"/>
<path fill="#000000" opacity="1.000000" stroke="none" 
	d="
M298.556519,370.867645 
	C297.308472,370.480591 296.174591,370.502197 295.864807,368.487671 
	C300.097992,368.088013 304.301941,366.216614 308.095428,369.870544 
	C309.675415,371.392365 311.511780,370.640930 313.233643,370.909729 
	C315.695099,371.293976 318.529053,370.180542 321.445068,373.561218 
	C314.809814,373.472321 309.048309,376.474121 303.697388,371.772369 
	C302.304596,370.548492 300.503601,371.272247 298.556519,370.867645 
z"/>
<path fill="#000000" opacity="1.000000" stroke="none" 
	d="
M350.390320,252.512726 
	C352.303833,255.194839 354.714630,257.119324 355.607758,260.149109 
	C350.050079,259.574585 340.471710,244.851135 342.366241,239.607574 
	C347.480072,242.345245 347.186829,248.327881 350.390320,252.512726 
z"/>
<path fill="#000000" opacity="1.000000" stroke="none" 
	d="
M383.411530,327.352875 
	C384.036163,328.265259 384.449219,328.932068 384.862244,329.598907 
	C376.753357,327.404022 372.881073,321.151520 369.277679,314.635376 
	C369.633789,314.263153 369.989868,313.890900 370.345978,313.518677 
	C374.630615,318.048218 378.915283,322.577789 383.411530,327.352875 
z"/>
<path fill="#000000" opacity="1.000000" stroke="none" 
	d="
M290.659973,371.678406 
	C283.659363,373.922089 276.919861,373.716858 270.188812,371.793579 
	C270.397980,370.134399 271.411102,369.867371 272.393585,369.861298 
	C277.998016,369.826630 283.603027,369.847015 289.207458,369.896484 
	C290.085663,369.904205 290.762390,370.376617 290.659973,371.678406 
z"/>
<path fill="#000000" opacity="1.000000" stroke="none" 
	d="
M312.630188,359.958557 
	C308.433258,358.923370 304.116730,360.920197 300.294678,358.398315 
	C303.154968,355.840576 310.482758,354.923157 313.131592,356.609558 
	C314.962372,357.775177 314.707306,358.873199 312.630188,359.958557 
z"/>
<path fill="#000000" opacity="1.000000" stroke="none" 
	d="
M310.606323,364.727478 
	C312.287048,365.138916 312.840820,366.143463 311.356628,366.535889 
	C307.585510,367.532806 303.722412,367.706543 299.355072,366.005737 
	C303.187744,363.276917 306.781494,364.613525 310.606323,364.727478 
z"/>
<path fill="#000000" opacity="1.000000" stroke="none" 
	d="
M329.860718,268.950867 
	C330.759583,267.214233 330.749817,265.405548 332.209625,264.357666 
	C334.302032,268.794434 333.035828,272.847198 329.215607,273.861237 
	C328.016602,272.183807 329.313934,270.781555 329.860718,268.950867 
z"/>
<path fill="#000000" opacity="1.000000" stroke="none" 
	d="
M368.874512,292.772827 
	C367.794617,291.146118 366.738220,289.747345 367.965790,288.122833 
	C368.249725,287.747131 369.206329,287.545044 369.692627,287.717194 
	C371.432861,288.333282 371.907135,289.966492 372.246063,291.557404 
	C372.436890,292.453217 372.766083,293.605957 371.598206,294.106903 
	C370.510712,294.573364 369.833588,293.612701 368.874512,292.772827 
z"/>
<path fill="#000000" opacity="1.000000" stroke="none" 
	d="
M273.589478,175.128113 
	C273.260162,173.073151 272.250122,171.284119 274.462372,169.551041 
	C276.331390,172.850571 277.677643,176.063904 277.149292,180.367188 
	C274.725525,179.163177 274.215851,177.307785 273.589478,175.128113 
z"/>
</svg>