<svg version="1.1" id="Layer_1" xmlns="http://www.w3.org/2000/svg" xmlns:xlink="http://www.w3.org/1999/xlink" x="0px" y="0px"
	 width="100%" viewBox="0 0 1024 1024" enable-background="new 0 0 1024 1024" xml:space="preserve">
<path fill="#000000" opacity="1.000000" stroke="none" 
	d="
M661.510132,519.446411 
	C656.280701,509.837097 653.014709,499.955231 650.528076,489.690399 
	C648.383728,480.838379 644.931091,480.080170 638.189331,486.355652 
	C609.408691,513.145691 580.627136,539.935059 551.951843,566.837585 
	C548.142700,570.411255 543.037720,572.907166 541.485718,578.539917 
	C538.317993,578.734924 537.619446,576.084229 536.393311,574.321350 
	C531.546021,567.352173 527.299011,559.947388 521.199951,553.907288 
	C512.500793,545.292175 501.184204,543.764954 490.581299,549.767639 
	C486.209839,552.242432 482.132996,555.175537 478.422363,558.503418 
	C467.770081,568.056824 455.871887,575.564148 442.749542,581.216736 
	C438.623169,582.994263 434.545898,584.914856 430.983215,587.747192 
	C426.735382,591.124207 424.539246,595.446899 425.492737,600.872742 
	C426.634918,607.372681 423.863129,611.787781 418.669556,615.163940 
	C413.605743,618.455750 408.011383,620.663635 402.468689,622.927490 
	C392.785858,626.882324 383.767181,631.661987 377.366547,640.358643 
	C376.278625,641.836792 375.076294,643.771851 372.592712,643.370300 
	C370.905426,641.396057 372.188965,639.507141 372.811890,637.738403 
	C375.817688,629.204041 380.198853,621.347168 385.033752,613.741028 
	C386.833435,610.909851 388.533173,608.028564 389.418365,604.801575 
	C390.030945,602.568237 390.477020,600.088257 388.463318,598.231628 
	C386.497070,596.418762 384.072388,596.824158 381.833984,597.559753 
	C378.837891,598.544250 375.974182,599.939880 372.964996,600.873230 
	C371.300537,601.389587 369.047119,602.084778 368.026367,600.016541 
	C366.914673,597.764038 369.158783,596.804565 370.598083,595.833923 
	C380.900513,588.885925 392.546783,584.687439 403.811768,579.708374 
	C412.809418,575.731506 421.721100,571.595642 429.752533,565.808105 
	C434.461700,562.414612 438.198090,558.264648 440.110870,552.687134 
	C443.207733,543.656799 449.622925,538.059082 458.386230,534.824585 
	C464.945984,532.403320 471.615112,530.219482 477.999176,527.395508 
	C486.675903,523.557312 487.910828,519.949219 484.030731,511.404846 
	C480.811523,504.315948 479.132843,496.835205 478.864349,489.157715 
	C478.703094,484.546692 475.875427,481.958435 473.240295,479.064148 
	C472.036652,477.742126 470.448151,478.772369 468.999420,478.989441 
	C456.445129,480.870697 445.247589,486.341522 434.032562,491.880646 
	C431.080170,493.338867 427.987549,495.484009 424.292847,494.222229 
	C423.381927,491.580475 425.221771,490.328766 426.565674,488.967163 
	C432.325500,483.131622 438.971069,478.377289 445.553894,473.544617 
	C449.313477,470.784576 452.979034,467.896790 456.703094,465.087952 
	C464.203766,459.430695 467.110870,452.286499 465.236053,442.786926 
	C463.956848,436.305328 464.437653,429.501556 462.748108,423.020233 
	C459.890381,412.057526 453.859039,409.224335 443.763519,414.468048 
	C434.506470,419.276306 426.955841,426.447021 419.416718,433.490265 
	C396.152588,455.224243 374.507782,478.585571 351.920074,501.000702 
	C342.823303,510.027954 334.295502,519.674683 323.779816,527.190796 
	C320.365540,529.631104 320.152313,533.038513 321.661072,536.570923 
	C324.080292,542.234924 324.707642,548.138916 324.366150,554.186218 
	C324.119568,558.552612 324.910278,562.621887 326.086517,566.877808 
	C327.539917,572.136353 327.495789,577.808777 328.120117,583.497620 
	C324.990356,584.081238 323.699615,581.841187 322.032379,580.432556 
	C316.715027,575.939941 313.195007,569.554810 306.762115,566.191772 
	C304.079620,564.789429 301.480927,563.518799 298.420685,563.094116 
	C293.790192,562.451599 289.368103,561.017029 285.067841,559.109436 
	C278.626007,556.251831 272.874023,556.872437 266.934082,561.407654 
	C242.042770,580.412170 217.509018,599.901978 191.826431,617.852661 
	C184.354034,623.075439 176.876785,628.323792 168.485519,632.145996 
	C167.171280,629.925110 168.924133,629.062073 169.787369,628.112061 
	C199.174683,595.771973 229.345154,564.241821 264.284027,537.706787 
	C273.197235,530.937500 282.789032,525.313965 292.788239,520.240234 
	C309.314911,511.854340 322.762329,499.263702 336.315887,486.921997 
	C361.449402,464.035675 385.208923,439.670258 410.977112,417.464966 
	C422.350037,407.664551 434.055420,398.298462 447.013397,390.632202 
	C452.911926,387.142456 459.120087,384.369965 465.812134,382.677002 
	C473.295624,380.783844 479.903778,382.361938 486.109344,386.817169 
	C498.217346,395.510071 508.943024,405.744904 519.214478,416.451965 
	C533.978394,431.842010 548.521301,447.443939 563.157104,462.956848 
	C570.941589,471.207825 578.907227,479.278687 588.206299,485.851257 
	C595.009399,490.659607 597.435242,490.563599 603.506836,485.001709 
	C610.138123,478.927124 616.318237,472.353119 623.043213,466.389404 
	C631.867798,458.563690 641.674438,452.778717 654.217102,454.736511 
	C661.350769,455.850006 667.308289,459.492615 672.826721,463.919220 
	C686.649353,475.007050 698.815308,487.825653 710.956604,500.656677 
	C725.499695,516.026123 741.307495,529.561707 761.104431,537.950989 
	C774.635925,543.685181 785.704651,553.202637 796.435669,562.987732 
	C818.282837,582.909180 837.852783,604.957947 856.395935,627.940857 
	C857.200745,628.938293 857.787659,630.111511 858.449829,631.161255 
	C856.804077,632.949158 855.396423,631.651001 854.172363,631.207520 
	C830.645386,622.683472 808.353516,612.124817 790.788513,593.495728 
	C781.912354,584.081787 771.128967,580.749878 758.490845,584.823853 
	C757.859009,585.027527 757.199036,585.244263 756.545776,585.266357 
	C740.836182,585.797424 731.496399,595.338867 724.297791,607.965820 
	C723.144409,609.988831 721.680054,611.835144 720.534668,613.862061 
	C715.784851,622.267517 708.710876,626.159424 699.022705,625.306458 
	C692.575684,624.738892 687.344177,627.380310 682.916077,631.854187 
	C681.024658,633.765137 678.969238,635.460327 676.561218,636.648010 
	C674.751282,637.540771 672.754333,638.345093 670.942261,636.795166 
	C669.154480,635.266052 669.494019,633.107544 670.078491,631.202332 
	C671.209595,627.515869 673.122559,624.192383 675.348450,621.041199 
	C683.683655,609.241028 694.078430,599.404663 704.901123,589.973877 
	C705.528992,589.426758 706.204468,588.934265 706.833984,588.388916 
	C716.406250,580.096863 716.390625,579.819336 708.872009,569.971130 
	C705.536987,565.602661 702.521423,560.991394 699.224426,556.592590 
	C694.865906,550.777649 689.628113,545.792603 682.942261,542.880493 
	C672.357849,538.270325 665.135010,530.824829 661.510132,519.446411 
z"/>
</svg>